<svg width="326" height="326" viewBox="0 0 326 326" fill="none" xmlns="http://www.w3.org/2000/svg">
  <path
    d="M295.263 239.746C290.18 256.273 282.556 271.53 272.39 285.515C259.683 305.857 245.705 324.927 222.832 324.927C201.23 324.927 193.606 312.214 169.462 312.214C144.048 312.214 136.424 324.927 116.092 324.927C94.4903 326.199 79.2417 303.314 65.2639 284.244C37.3082 243.56 15.706 171.092 44.9325 121.509C58.9103 97.3526 83.0539 82.0961 111.01 80.8248C132.612 80.8248 151.672 94.8098 164.38 94.8098C177.087 94.8098 201.23 77.0107 226.645 79.5534C250.788 80.8248 272.39 92.2671 286.368 111.338C264.766 124.051 252.059 148.207 250.788 173.635C252.059 202.876 268.578 228.303 295.263 239.746ZM211.396 54.1261C222.832 40.141 229.186 21.0705 227.915 2C208.855 4.54273 192.335 12.1709 179.628 26.156C166.921 40.141 161.838 57.9402 163.109 75.7393C182.17 77.0107 199.96 68.1111 211.396 54.1261Z"
    fill="white" />
</svg>
