<svg width="2851" height="605" viewBox="0 0 2851 605" fill="none" xmlns="http://www.w3.org/2000/svg">
<path d="M2555.57 507.613C2607.76 532.98 2647.48 541.436 2708.75 541.436C2799.43 541.436 2851 497.158 2851 429.974C2851 365.556 2803.43 336.96 2721.22 320.049C2664.41 308.211 2642.86 299.14 2642.86 279.615C2642.86 260.705 2660.56 248.405 2695.05 248.405C2730.3 248.405 2770.79 258.091 2805.28 271.159L2835.3 204.743C2796.81 189.061 2752.47 175.993 2697.05 175.993C2614.84 175.993 2562.04 220.271 2562.04 284.227C2562.04 352.488 2617.46 377.24 2693.82 394.152C2748.62 405.99 2768.79 415.061 2768.79 435.201C2768.79 453.496 2752.47 469.178 2710.75 469.178C2666.41 469.178 2633.16 459.338 2589.44 440.428L2555.57 507.613Z" fill="#0E0E0E"/>
<path d="M2503.69 265.317V190.445H2404.54V53H2313.25V190.445H2263.06V265.317H2313.25V437.814C2313.25 512.071 2360.82 549.276 2420.25 549.276C2471.05 549.276 2498.45 537.592 2502.46 536.208V468.562C2489.99 469.792 2476.29 471.791 2460.74 471.791C2415.01 471.791 2404.54 453.496 2404.54 390.308V265.317H2503.69Z" fill="#0E0E0E"/>
<path d="M2063.39 175.993C2027.52 175.993 1994.88 186.448 1968.87 204.743V182.604H1878.19V536.209H1968.87V285.457C1989.03 267.93 2015.2 257.476 2047.07 257.476C2097.26 257.476 2124.05 284.227 2124.05 338.805V536.209H2214.72V338.805C2214.72 224.268 2167.15 175.993 2063.39 175.993Z" fill="#0E0E0E"/>
<path d="M1830.77 385.081C1830.77 379.239 1831.39 372.013 1831.39 364.941C1831.39 254.862 1768.12 175.993 1659.12 175.993C1552.28 175.993 1477.92 257.476 1477.92 359.099C1477.92 459.953 1552.28 541.436 1659.12 541.436C1728.24 541.436 1786.44 512.686 1818.92 468.409L1760.88 420.288C1741.33 447.039 1706.84 463.95 1669.59 463.95C1615.55 463.95 1578.3 431.357 1568.6 385.081H1830.77ZM1659.12 248.405C1719.78 248.405 1741.33 286.841 1744.56 327.121H1569.21C1577.68 283.458 1611.55 248.405 1659.12 248.405Z" fill="#0E0E0E"/>
<path d="M1334.44 191.367L1238.53 391.845L1142 191.367H1046.86L1216.97 544.972H1260.08L1429.58 191.367H1334.44Z" fill="#0E0E0E"/>
<path d="M913.539 53V210.585C884.289 194.288 848.418 183.834 810.547 183.834C712.019 183.834 631.195 256.246 631.195 366.939C631.195 475.634 712.019 549.891 810.547 549.891C847.649 549.891 884.904 539.437 913.539 522.526V544.049H1004.83V53H913.539ZM826.865 467.794C766.209 467.794 721.256 426.745 721.256 366.939C721.256 308.979 766.209 265.317 826.865 265.317C861.35 265.317 891.986 277.001 913.539 295.296V437.199C891.986 456.109 860.734 467.794 826.865 467.794Z" fill="#0E0E0E"/>
<path fill-rule="evenodd" clip-rule="evenodd" d="M570.666 550.018H487.472C483.605 549.965 479.819 548.911 476.483 546.957C473.148 545.003 470.378 542.218 468.445 538.873L448.302 503.992C447.038 501.816 446.37 499.347 446.365 496.831C446.36 494.316 447.018 491.844 448.274 489.664C449.53 487.484 451.338 485.672 453.518 484.411C455.697 483.151 458.171 482.486 460.689 482.483H543.939C547.814 482.496 551.616 483.534 554.958 485.492C558.3 487.45 561.063 490.257 562.966 493.627L583.109 528.509C584.358 530.691 585.011 533.162 585.006 535.676C585 538.189 584.334 540.657 583.075 542.833C581.816 545.01 580.008 546.818 577.83 548.079C575.653 549.339 573.183 550.008 570.666 550.018Z" fill="#0E0E0E"/>
<path fill-rule="evenodd" clip-rule="evenodd" d="M477.214 345.475L338.39 105.147L338.836 104.423L278.463 0L5.72515 471.629C-0.377243 483.564 -1.6562 497.384 2.1525 510.234C5.9612 523.083 14.5666 533.981 26.1909 540.676C37.8152 547.37 51.5704 549.351 64.6149 546.207C77.6594 543.064 88.9966 535.037 96.2845 523.785L278.017 209.625L356.413 345.475H273.33C259.474 345.49 246.19 350.997 236.397 360.787C226.604 370.577 221.104 383.849 221.104 397.687C221.118 411.515 226.625 424.772 236.417 434.55C246.208 444.328 259.483 449.828 273.33 449.842H537.531L477.214 345.475Z" fill="#0E0E0E"/>
</svg>
