<svg width="536" height="536" viewBox="0 0 536 536" fill="none" xmlns="http://www.w3.org/2000/svg">
  <g clip-path="url(#clip0_66_260)">
    <path fill-rule="evenodd" clip-rule="evenodd"
      d="M522.862 519.769H446.637C443.094 519.721 439.625 518.755 436.569 516.966C433.513 515.176 430.975 512.625 429.204 509.562L410.748 477.613C409.59 475.621 408.978 473.359 408.973 471.055C408.969 468.751 409.572 466.487 410.722 464.49C411.873 462.493 413.53 460.834 415.527 459.679C417.524 458.525 419.79 457.916 422.098 457.913H498.374C501.924 457.925 505.407 458.876 508.469 460.669C511.532 462.462 514.063 465.033 515.807 468.12L534.262 500.069C535.406 502.068 536.006 504.331 536 506.633C535.995 508.935 535.385 511.195 534.231 513.189C533.078 515.182 531.421 516.839 529.426 517.993C527.431 519.148 525.168 519.76 522.862 519.769Z"
      fill="#0E0E0E" />
    <path fill-rule="evenodd" clip-rule="evenodd"
      d="M437.238 332.426L310.043 112.306L310.452 111.642L255.137 16L5.24556 447.972C-0.345642 458.903 -1.51746 471.561 1.97219 483.33C5.46183 495.099 13.3463 505.081 23.9969 511.212C34.6475 517.344 47.2504 519.158 59.2022 516.279C71.154 513.4 81.5415 506.048 88.2189 495.742L254.728 207.999L326.556 332.426H250.433C237.738 332.439 225.567 337.483 216.594 346.45C207.622 355.417 202.582 367.573 202.582 380.247C202.595 392.912 207.641 405.055 216.612 414.01C225.583 422.966 237.747 428.003 250.433 428.017H492.503L437.238 332.426Z"
      fill="#0E0E0E" />
  </g>
  <defs>
    <clipPath id="clip0_66_260">
      <rect width="536" height="536" fill="white" />
    </clipPath>
  </defs>
</svg>
